<svg width="111" height="22" viewBox="0 0 111 22" fill="none" xmlns="http://www.w3.org/2000/svg">
<g clip-path="url(#clip0_964_9614)">
<path d="M20.1308 8.41256C20.0732 8.24274 19.967 8.09353 19.8256 7.98335C19.6841 7.87316 19.5134 7.80681 19.3347 7.79251L14.1055 7.377L11.8427 2.36798C11.7706 2.20665 11.6534 2.06963 11.5052 1.97344C11.357 1.87726 11.1841 1.82602 11.0074 1.82593C10.8307 1.82583 10.6577 1.87687 10.5094 1.9729C10.3611 2.06892 10.2437 2.20582 10.1715 2.36707L7.90867 7.377L2.67951 7.79251C2.50382 7.80642 2.33586 7.87066 2.19572 7.97754C2.05559 8.08442 1.94921 8.2294 1.88931 8.39516C1.82941 8.56091 1.81854 8.74041 1.85799 8.91218C1.89744 9.08395 1.98553 9.24072 2.11175 9.36373L5.97605 13.1308L4.60937 19.0488C4.56788 19.2279 4.58118 19.4154 4.64755 19.5869C4.71392 19.7584 4.8303 19.9059 4.98159 20.0105C5.13288 20.115 5.31208 20.1716 5.49596 20.173C5.67983 20.1744 5.85988 20.1205 6.01274 20.0183L11.0071 16.6888L16.0014 20.0183C16.1577 20.1221 16.3419 20.1755 16.5294 20.1713C16.7169 20.1672 16.8986 20.1058 17.0502 19.9953C17.2017 19.8848 17.3158 19.7306 17.3771 19.5533C17.4383 19.3761 17.4438 19.1843 17.3929 19.0039L15.7152 13.1336L19.8758 9.38941C20.1482 9.14359 20.2482 8.76019 20.1308 8.41256Z" fill="#F3CD03"/>
<path d="M42.145 8.41256C42.0873 8.24274 41.9812 8.09353 41.8397 7.98335C41.6982 7.87316 41.5276 7.80681 41.3488 7.79251L36.1197 7.377L33.8568 2.36798C33.7848 2.20665 33.6676 2.06963 33.5193 1.97344C33.3711 1.87726 33.1982 1.82602 33.0215 1.82593C32.8448 1.82583 32.6719 1.87687 32.5236 1.9729C32.3752 2.06892 32.2579 2.20582 32.1856 2.36707L29.9228 7.377L24.6937 7.79251C24.518 7.80642 24.35 7.87066 24.2099 7.97754C24.0697 8.08442 23.9634 8.2294 23.9035 8.39516C23.8436 8.56091 23.8327 8.74041 23.8721 8.91218C23.9116 9.08395 23.9997 9.24072 24.1259 9.36373L27.9902 13.1308L26.6235 19.0488C26.582 19.2279 26.5953 19.4154 26.6617 19.5869C26.7281 19.7584 26.8445 19.9059 26.9957 20.0105C27.147 20.115 27.3262 20.1716 27.5101 20.173C27.694 20.1744 27.874 20.1205 28.0269 20.0183L33.0212 16.6888L38.0156 20.0183C38.1718 20.1221 38.3561 20.1755 38.5436 20.1713C38.7311 20.1672 38.9128 20.1058 39.0643 19.9953C39.2159 19.8848 39.33 19.7306 39.3912 19.5533C39.4525 19.3761 39.458 19.1843 39.407 19.0039L37.7294 13.1336L41.89 9.38941C42.1624 9.14359 42.2624 8.76019 42.145 8.41256Z" fill="#F3CD03"/>
<path d="M64.1557 8.41256C64.0981 8.24274 63.9919 8.09353 63.8505 7.98335C63.709 7.87316 63.5383 7.80681 63.3596 7.79251L58.1304 7.377L55.8676 2.36798C55.7955 2.20665 55.6783 2.06963 55.5301 1.97344C55.3819 1.87726 55.209 1.82602 55.0323 1.82593C54.8556 1.82583 54.6826 1.87687 54.5343 1.9729C54.386 2.06892 54.2686 2.20582 54.1964 2.36707L51.9336 7.377L46.7044 7.79251C46.5287 7.80642 46.3608 7.87066 46.2206 7.97754C46.0805 8.08442 45.9741 8.2294 45.9142 8.39516C45.8543 8.56091 45.8434 8.74041 45.8829 8.91218C45.9223 9.08395 46.0104 9.24072 46.1366 9.36373L50.001 13.1308L48.6343 19.0488C48.5928 19.2279 48.6061 19.4154 48.6725 19.5869C48.7388 19.7584 48.8552 19.9059 49.0065 20.0105C49.1578 20.115 49.337 20.1716 49.5209 20.173C49.7047 20.1744 49.8848 20.1205 50.0376 20.0183L55.032 16.6888L60.0263 20.0183C60.1826 20.1221 60.3668 20.1755 60.5543 20.1713C60.7418 20.1672 60.9235 20.1058 61.0751 19.9953C61.2266 19.8848 61.3407 19.7306 61.402 19.5533C61.4632 19.3761 61.4687 19.1843 61.4178 19.0039L59.7401 13.1336L63.9007 9.38941C64.1731 9.14359 64.2731 8.76019 64.1557 8.41256Z" fill="#F3CD03"/>
<path d="M86.1718 8.41256C86.1142 8.24274 86.0081 8.09353 85.8666 7.98335C85.7251 7.87316 85.5544 7.80681 85.3757 7.79251L80.1465 7.377L77.8837 2.36798C77.8116 2.20665 77.6944 2.06963 77.5462 1.97344C77.398 1.87726 77.2251 1.82602 77.0484 1.82593C76.8717 1.82583 76.6988 1.87687 76.5504 1.9729C76.4021 2.06892 76.2847 2.20582 76.2125 2.36707L73.9497 7.377L68.7205 7.79251C68.5448 7.80642 68.3769 7.87066 68.2367 7.97754C68.0966 8.08442 67.9902 8.2294 67.9303 8.39516C67.8704 8.56091 67.8596 8.74041 67.899 8.91218C67.9385 9.08395 68.0266 9.24072 68.1528 9.36373L72.0171 13.1308L70.6504 19.0488C70.6089 19.2279 70.6222 19.4154 70.6886 19.5869C70.7549 19.7584 70.8713 19.9059 71.0226 20.0105C71.1739 20.115 71.3531 20.1716 71.537 20.173C71.7208 20.1744 71.9009 20.1205 72.0538 20.0183L77.0481 16.6888L82.0424 20.0183C82.1987 20.1221 82.3829 20.1755 82.5704 20.1713C82.7579 20.1672 82.9397 20.1058 83.0912 19.9953C83.2427 19.8848 83.3568 19.7306 83.4181 19.5533C83.4793 19.3761 83.4849 19.1843 83.4339 19.0039L81.7563 13.1336L85.9168 9.38941C86.1893 9.14359 86.2892 8.76019 86.1718 8.41256Z" fill="#F3CD03"/>
<path d="M94.0324 13.1308L92.6657 19.0488C92.6234 19.228 92.6361 19.4158 92.7022 19.5877C92.7682 19.7596 92.8846 19.9075 93.0361 20.0122C93.1875 20.1169 93.367 20.1735 93.5512 20.1746C93.7353 20.1757 93.9155 20.1212 94.0682 20.0183L99.0625 16.6888L104.057 20.0183C104.213 20.1221 104.397 20.1755 104.585 20.1714C104.772 20.1673 104.954 20.1058 105.106 19.9953C105.257 19.8849 105.371 19.7306 105.432 19.5534C105.494 19.3761 105.499 19.1844 105.448 19.0039L103.771 13.1336L107.931 9.38944C108.064 9.26946 108.16 9.11304 108.205 8.93955C108.25 8.76605 108.244 8.58308 108.186 8.41327C108.129 8.24345 108.022 8.09424 107.881 7.98408C107.739 7.87392 107.569 7.80764 107.39 7.79345L102.161 7.37703L99.8981 2.36801C99.826 2.20672 99.7087 2.06976 99.5604 1.97366C99.4121 1.87755 99.2392 1.82642 99.0625 1.82642C98.8858 1.82642 98.7129 1.87755 98.5646 1.97366C98.4163 2.06976 98.2991 2.20672 98.2269 2.36801L95.9641 7.37703L90.7349 7.79254C90.5592 7.80645 90.3913 7.87069 90.2511 7.97757C90.111 8.08445 90.0046 8.22943 89.9447 8.39518C89.8848 8.56094 89.874 8.74044 89.9134 8.91221C89.9529 9.08398 90.041 9.24074 90.1672 9.36376L94.0324 13.1308ZM96.6493 9.16288C96.813 9.14998 96.9702 9.09328 97.1045 8.99871C97.2388 8.90414 97.3451 8.77519 97.4124 8.62538L99.0625 4.97387L100.713 8.62538C100.78 8.77519 100.886 8.90414 101.021 8.99871C101.155 9.09328 101.312 9.14998 101.476 9.16288L105.119 9.45181L102.119 12.1521C101.858 12.387 101.755 12.7484 101.85 13.0859L102.999 17.108L99.5725 14.8231C99.4221 14.7222 99.245 14.6683 99.0639 14.6683C98.8827 14.6683 98.7057 14.7222 98.5553 14.8231L94.9744 17.2107L95.9375 13.0409C95.9728 12.8876 95.9681 12.7277 95.9237 12.5767C95.8794 12.4257 95.7969 12.2887 95.6843 12.1787L92.8978 9.4619L96.6493 9.16288Z" fill="#F3CD03"/>
</g>
<defs>
<clipPath id="clip0_964_9614">
<rect width="110.068" height="22" fill="white"/>
</clipPath>
</defs>
</svg>
